{
  "accessors": [
    {
      "bufferView": 2,
      "componentType": 5126,
      "count": 5988,
      "max": [
        0.03181380033493042,
        0.17159900069236755,
        0.49494901299476624
      ],
      "min": [
        -0.03181380033493042,
        -0.013711700215935707,
        -0.9833629727363586
      ],
      "type": "VEC3"
    },
    {
      "bufferView": 2,
      "byteOffset": 71856,
      "componentType": 5126,
      "count": 5988,
      "max": [
        1.0,
        1.0,
        1.0
      ],
      "min": [
        -1.0,
        -0.9999969005584717,
        -1.0
      ],
      "type": "VEC3"
    },
    {
      "bufferView": 3,
      "componentType": 5126,
      "count": 5988,
      "max": [
        1.0,
        0.9999920129776001,
        1.0,
        1.0
      ],
      "min": [
        -1.0,
        -1.0,
        -1.0,
        1.0
      ],
      "type": "VEC4"
    },
    {
      "bufferView": 1,
      "componentType": 5126,
      "count": 5988,
      "max": [
        0.9772700071334839,
        0.9764530062675476
      ],
      "min": [
        0.0008079070248641074,
        0.3250640034675598
      ],
      "type": "VEC2"
    },
    {
      "bufferView": 0,
      "componentType": 5125,
      "count": 11136,
      "type": "SCALAR"
    },
    {
      "bufferView": 2,
      "byteOffset": 143712,
      "componentType": 5126,
      "count": 207,
      "max": [
        0.026822300627827644,
        0.07112439721822739,
        1.0
      ],
      "min": [
        -0.02667270042002201,
        -0.20194800198078156,
        0.48370999097824097
      ],
      "type": "VEC3"
    },
    {
      "bufferView": 2,
      "byteOffset": 146196,
      "componentType": 5126,
      "count": 207,
      "max": [
        1.0,
        0.9252098798751831,
        0.987892746925354
      ],
      "min": [
        -1.0,
        -0.9358084201812744,
        -0.6093540191650391
      ],
      "type": "VEC3"
    },
    {
      "bufferView": 3,
      "byteOffset": 95808,
      "componentType": 5126,
      "count": 207,
      "max": [
        0.29827800393104553,
        0.6363270282745361,
        1.0075200407300144e-05,
        1.0
      ],
      "min": [
        -1.0,
        -0.9878929853439331,
        -0.9993500113487244,
        1.0
      ],
      "type": "VEC4"
    },
    {
      "bufferView": 1,
      "byteOffset": 47904,
      "componentType": 5126,
      "count": 207,
      "max": [
        0.773751974105835,
        0.739467978477478
      ],
      "min": [
        0.0008079070248641074,
        0.0008079070248641074
      ],
      "type": "VEC2"
    },
    {
      "bufferView": 0,
      "byteOffset": 44544,
      "componentType": 5125,
      "count": 972,
      "type": "SCALAR"
    },
    {
      "bufferView": 2,
      "byteOffset": 148680,
      "componentType": 5126,
      "count": 8606,
      "max": [
        0.02794020064175129,
        0.20194800198078156,
        0.5610380172729492
      ],
      "min": [
        -0.027790600433945656,
        -0.10114700347185135,
        -1.0
      ],
      "type": "VEC3"
    },
    {
      "bufferView": 2,
      "byteOffset": 251952,
      "componentType": 5126,
      "count": 8606,
      "max": [
        1.0,
        1.0,
        1.0
      ],
      "min": [
        -1.0,
        -1.0,
        -1.0
      ],
      "type": "VEC3"
    },
    {
      "bufferView": 3,
      "byteOffset": 99120,
      "componentType": 5126,
      "count": 8606,
      "max": [
        1.0,
        0.9999979734420776,
        1.0,
        1.0
      ],
      "min": [
        -1.0,
        -1.0,
        -1.0,
        -1.0
      ],
      "type": "VEC4"
    },
    {
      "bufferView": 1,
      "byteOffset": 49560,
      "componentType": 5126,
      "count": 8606,
      "max": [
        0.9991919994354248,
        0.9749959707260132
      ],
      "min": [
        0.0008079070248641074,
        0.0008079070248641074
      ],
      "type": "VEC2"
    },
    {
      "bufferView": 0,
      "byteOffset": 48432,
      "componentType": 5125,
      "count": 21846,
      "type": "SCALAR"
    }
  ],
  "asset": {
    "extras": {
      "author": "iedalton (https://sketchfab.com/iedalton)",
      "license": "CC-BY-4.0 (http://creativecommons.org/licenses/by/4.0/)",
      "source": "https://sketchfab.com/3d-models/repeater-rifle-cbd4a49077c24a24bc396e2edfcaee78",
      "title": "Repeater Rifle"
    },
    "generator": "Sketchfab-12.67.0",
    "version": "2.0"
  },
  "bufferViews": [
    {
      "buffer": 0,
      "byteLength": 135816,
      "name": "floatBufferViews",
      "target": 34963
    },
    {
      "buffer": 0,
      "byteLength": 118408,
      "byteOffset": 135816,
      "byteStride": 8,
      "name": "floatBufferViews",
      "target": 34962
    },
    {
      "buffer": 0,
      "byteLength": 355224,
      "byteOffset": 254224,
      "byteStride": 12,
      "name": "floatBufferViews",
      "target": 34962
    },
    {
      "buffer": 0,
      "byteLength": 236816,
      "byteOffset": 609448,
      "byteStride": 16,
      "name": "floatBufferViews",
      "target": 34962
    }
  ],
  "buffers": [
    {
      "byteLength": 846264,
      "uri": "scene.bin"
    }
  ],
  "images": [
    {
      "uri": "textures/DarkSteel_002_baseColor.jpeg"
    },
    {
      "uri": "textures/DarkSteel_002_metallicRoughness.png"
    },
    {
      "uri": "textures/DarkSteel_002_normal.jpeg"
    },
    {
      "uri": "textures/Wood_002_baseColor.jpeg"
    },
    {
      "uri": "textures/Wood_002_metallicRoughness.png"
    },
    {
      "uri": "textures/Wood_002_normal.jpeg"
    },
    {
      "uri": "textures/LigthSteel_002_baseColor.jpeg"
    },
    {
      "uri": "textures/LigthSteel_002_metallicRoughness.png"
    },
    {
      "uri": "textures/LigthSteel_002_normal.jpeg"
    }
  ],
  "materials": [
    {
      "doubleSided": true,
      "name": "DarkSteel_002",
      "normalTexture": {
        "index": 2
      },
      "pbrMetallicRoughness": {
        "baseColorTexture": {
          "index": 0
        },
        "metallicRoughnessTexture": {
          "index": 1
        }
      }
    },
    {
      "doubleSided": true,
      "name": "Wood_002",
      "normalTexture": {
        "index": 5
      },
      "pbrMetallicRoughness": {
        "baseColorTexture": {
          "index": 3
        },
        "metallicRoughnessTexture": {
          "index": 4
        }
      }
    },
    {
      "doubleSided": true,
      "name": "LigthSteel_002",
      "normalTexture": {
        "index": 8
      },
      "pbrMetallicRoughness": {
        "baseColorTexture": {
          "index": 6
        },
        "metallicRoughnessTexture": {
          "index": 7
        }
      }
    }
  ],
  "meshes": [
    {
      "name": "defaultMaterial",
      "primitives": [
        {
          "attributes": {
            "NORMAL": 1,
            "POSITION": 0,
            "TANGENT": 2,
            "TEXCOORD_0": 3
          },
          "indices": 4,
          "material": 2,
          "mode": 4
        }
      ]
    },
    {
      "name": "defaultMaterial",
      "primitives": [
        {
          "attributes": {
            "NORMAL": 6,
            "POSITION": 5,
            "TANGENT": 7,
            "TEXCOORD_0": 8
          },
          "indices": 9,
          "material": 1,
          "mode": 4
        }
      ]
    },
    {
      "name": "defaultMaterial",
      "primitives": [
        {
          "attributes": {
            "NORMAL": 11,
            "POSITION": 10,
            "TANGENT": 12,
            "TEXCOORD_0": 13
          },
          "indices": 14,
          "material": 0,
          "mode": 4
        }
      ]
    }
  ],
  "nodes": [
    {
      "children": [
        1
      ],
      "matrix": [
        1.0,
        0.0,
        0.0,
        0.0,
        0.0,
        2.220446049250313e-16,
        -1.0,
        0.0,
        0.0,
        1.0,
        2.220446049250313e-16,
        0.0,
        0.0,
        0.0,
        0.0,
        1.0
      ],
      "name": "Sketchfab_model"
    },
    {
      "children": [
        2,
        4,
        6
      ],
      "matrix": [
        1.0,
        0.0,
        0.0,
        0.0,
        0.0,
        -4.371139006309477e-08,
        0.999999999999999,
        0.0,
        0.0,
        -0.999999999999999,
        -4.371139006309477e-08,
        0.0,
        0.0,
        0.0,
        0.0,
        1.0
      ],
      "name": "Collada visual scene group"
    },
    {
      "children": [
        3
      ],
      "name": "Cube.004"
    },
    {
      "mesh": 0,
      "name": "defaultMaterial"
    },
    {
      "children": [
        5
      ],
      "name": "Cube.004"
    },
    {
      "mesh": 1,
      "name": "defaultMaterial"
    },
    {
      "children": [
        7
      ],
      "name": "Cube.004"
    },
    {
      "mesh": 2,
      "name": "defaultMaterial"
    }
  ],
  "samplers": [
    {
      "magFilter": 9729,
      "minFilter": 9987,
      "wrapS": 10497,
      "wrapT": 10497
    }
  ],
  "scene": 0,
  "scenes": [
    {
      "name": "Sketchfab_Scene",
      "nodes": [
        0
      ]
    }
  ],
  "textures": [
    {
      "sampler": 0,
      "source": 0
    },
    {
      "sampler": 0,
      "source": 1
    },
    {
      "sampler": 0,
      "source": 2
    },
    {
      "sampler": 0,
      "source": 3
    },
    {
      "sampler": 0,
      "source": 4
    },
    {
      "sampler": 0,
      "source": 5
    },
    {
      "sampler": 0,
      "source": 6
    },
    {
      "sampler": 0,
      "source": 7
    },
    {
      "sampler": 0,
      "source": 8
    }
  ]
}
